<?xml version="1.0" standalone="no"?>
<!DOCTYPE svg PUBLIC "-//W3C//DTD SVG 20010904//EN"
 "http://www.w3.org/TR/2001/REC-SVG-20010904/DTD/svg10.dtd">
<svg version="1.0" xmlns="http://www.w3.org/2000/svg"
 width="776.000000pt" height="776.000000pt" viewBox="0 0 776.000000 776.000000"
 preserveAspectRatio="xMidYMid meet">
<metadata>
Created by potrace 1.14, written by Peter Selinger 2001-2017
</metadata>
<g transform="translate(0.000000,776.000000) scale(0.100000,-0.100000)"
fill="#000000" stroke="none">
<path d="M450 7744 c-211 -55 -387 -231 -435 -435 -13 -56 -15 -465 -15 -3428
0 -3755 -7 -3412 72 -3563 52 -101 160 -206 262 -254 146 -69 -139 -64 3573
-62 l3358 3 80 28 c155 55 282 164 349 301 71 146 66 -140 66 3553 0 3685 5
3397 -66 3543 -49 100 -170 223 -264 268 -139 67 161 62 -3555 61 -2904 0
-3378 -2 -3425 -15z m1258 -740 c237 -49 412 -207 492 -442 51 -153 50 -123
50 -2060 0 -1203 4 -1835 11 -1900 31 -286 117 -409 329 -473 75 -23 81 -23
920 -29 941 -7 905 -5 1044 -78 130 -68 227 -190 275 -345 22 -73 25 -100 25
-252 0 -134 -3 -184 -17 -235 -61 -220 -197 -364 -403 -426 -55 -17 -147 -19
-1514 -22 -977 -2 -1481 1 -1535 8 -354 46 -560 275 -604 674 -15 129 -15
4794 -1 4921 15 132 36 209 86 312 89 186 238 302 449 348 86 19 299 18 393
-1z m4760 -3 c142 -30 250 -86 342 -180 44 -44 89 -102 107 -136 41 -79 78
-207 92 -320 15 -122 16 -4833 1 -4955 -21 -167 -76 -314 -158 -423 -76 -100
-224 -188 -377 -223 -117 -27 -360 -25 -468 4 -207 56 -354 186 -428 376 -67
175 -62 13 -69 2186 -6 1828 -7 1970 -24 2040 -37 159 -104 259 -209 312 -124
62 -107 61 -1067 68 -974 7 -922 3 -1063 77 -80 42 -144 109 -187 196 -45 91
-62 190 -63 347 0 227 55 390 169 503 67 66 130 102 226 127 70 18 128 19
1578 19 1445 1 1509 0 1598 -18z m-1706 -2501 c183 -56 326 -220 380 -432 17
-69 20 -102 15 -203 -12 -283 -145 -490 -358 -556 -56 -17 -97 -19 -492 -19
-483 0 -520 4 -643 65 -126 62 -212 176 -251 332 -24 97 -24 353 1 443 47 173
150 296 290 347 106 38 153 41 577 42 389 1 421 0 481 -19z"/>
</g>
</svg>
